<?xml version="1.0" encoding="iso-8859-1"?>
<!-- Generator: Adobe Illustrator 19.0.0, SVG Export Plug-In . SVG Version: 6.00 Build 0)  -->
<svg version="1.1" id="Layer_1" xmlns="http://www.w3.org/2000/svg" xmlns:xlink="http://www.w3.org/1999/xlink" x="0px" y="0px"
	 viewBox="0 0 400 400" style="enable-background:new 0 0 400 400;" xml:space="preserve">
<g>
	<g>
		<g>
			<circle style="fill:#EDE2D9;" cx="258.922" cy="258.922" r="258.922"/>
			<path style="fill:#F2EBE7;" d="M0,258.922c0,143,115.931,258.918,258.931,258.918V0C115.931,0,0,115.927,0,258.922z"/>
		</g>
		<g>
			<path style="fill:#D6638C;" d="M125.359,381.472c0,0,45.445,52.388,132.636,52.388c87.195,0,134.496-58.404,134.496-58.404
				l-127.864-55.12L125.359,381.472z"/>
			<path style="fill:#E27296;" d="M258.926,115.264c0,0-110.531,66.027-68.084,262.501c0,0,15.589,23.135,68.084,23.135
				c52.486,0,68.075-23.135,68.075-23.135C369.453,181.296,258.926,115.264,258.926,115.264z"/>
			<g>
				<g>
					<path style="fill:#F9BDB3;" d="M254.92,102.271c0,0-15.875-28.073-43.948-14.648s-32.956,11.771-54.932,17.872
						c-21.972,6.105-24.418,26.243-40.28,48.219c-15.875,21.972-32.118,40.323-34.559,70.837
						c-2.437,30.519-17.324,31.087-4.502,75.031c14.943,51.255,19.864,45.573,39.061,70.803
						c21.356,28.073,59.199,3.053,86.669,7.324c22.237,3.459,32.956-32.524,52.491-30.083V102.271z"/>
					<g>
						<g>
							<g>
								<g>
									<g>
										<path style="fill:#F99CA7;" d="M254.099,120.258c-14.917,3.963-30.993,2.818-44.034-5.798
											c-1.116-0.731-2.8-0.479-3.703,0.475c-10.535,11.232-25.367,16.982-40.558,17.419c-3.929,0.111-3.938,6.217,0,6.101
											c16.897-0.483,32.639-6.828,44.628-18.924c-3.912,3.946,21.463,8.731,24.041,8.91c6.926,0.483,14.533-0.517,21.254-2.305
											C259.521,125.132,257.909,119.245,254.099,120.258L254.099,120.258z"/>
									</g>
									<g>
										<path style="fill:#F99CA7;" d="M154.932,146.8c-4.181,16.033-15.896,29.061-32.049,33.268
											c-1.496,0.389-2.728,2.215-2.129,3.754c7.444,19.407-5.122,35.564-22.408,43.546c-3.57,1.65-0.466,6.914,3.083,5.272
											c19.868-9.18,32.062-26.829,25.722-48.929c-0.945-3.296-0.038,1.561,1.437,1.176c2.672-0.693,5.511-2.236,7.961-3.459
											c5.451-2.732,9.949-7.495,13.75-12.13c4.831-5.9,8.59-13.472,10.518-20.882C161.803,144.611,155.92,142.995,154.932,146.8
											L154.932,146.8z"/>
									</g>
									<g>
										<path style="fill:#F99CA7;" d="M255.724,144.671c-23.327-9.53-46.116,3.822-57.16,24.597
											c-1.847,3.472,3.429,6.559,5.272,3.083c9.894-18.616,29.484-30.284,50.263-21.792
											C257.751,152.047,259.32,146.138,255.724,144.671L255.724,144.671z"/>
									</g>
									<g>
										<path style="fill:#F99CA7;" d="M195.999,139.485c-15.105,6.956-31.695,24.969-29.561,42.533
											c2.082,17.085,26.038,21.399,39.241,17.324c-0.992-1.702-1.984-3.399-2.976-5.101
											c-10.146,12.899-11.728,35.632,3.976,45.59c15.713,9.958,40.019,3.668,50.866-11.33c2.317-3.194-2.984-6.238-5.263-3.083
											c-6.058,8.367-18.445,12.425-28.197,13.447c-22.246,2.322-28.189-26.166-17.059-40.305
											c1.736-2.202,0.235-6.088-2.963-5.096c-7.662,2.364-14.742,1.629-22.092-1.569c-13.592-5.922-9.616-18.958-3.686-28.873
											c4.596-7.692,12.647-14.507,20.8-18.261C202.652,143.111,199.552,137.852,195.999,139.485L195.999,139.485z"/>
									</g>
									<g>
										<path style="fill:#F99CA7;" d="M254.92,176.297c-19.804,2.215-30.972,19.411-29.916,38.45
											c0.227,3.912,6.323,3.933,6.105,0c-0.607-10.856,2.138-21.113,11.454-27.5c3.339-2.292,10.107-4.596,12.361-4.848
											C258.781,181.971,258.819,175.857,254.92,176.297L254.92,176.297z"/>
									</g>
									<g>
										<path style="fill:#F99CA7;" d="M202.425,251.371c-0.047,6.204,2.629,12.553,7.243,16.692
											c12.767,11.488,34.247,1.334,46.783-4.904c3.519-1.753,0.432-7.016-3.078-5.267c-12.027,5.977-45.03,18.419-44.85-6.52
											C208.556,247.434,202.451,247.434,202.425,251.371L202.425,251.371z"/>
									</g>
									<g>
										<path style="fill:#F99CA7;" d="M160.593,195.512c-5.349,7.448-9.282,16.572-9.333,25.828
											c-0.09,17.996,22.075,20.24,35.295,20.266c-0.718-1.736-1.445-3.472-2.163-5.212
											c-12.993,10.779-26.598,31.494-12.771,46.762c10.522,11.617,35.41,5.592,48.091,1.672c3.75-1.159,2.155-7.046-1.62-5.883
											c-9.817,3.031-20.099,4.6-30.373,4.066c-28.146-1.467-11.185-32.203,1-42.298c2.125-1.766,0.312-5.208-2.163-5.212
											c-14.622-0.021-32.746-2.899-28.253-21.467c1.325-5.481,4.293-10.873,7.568-15.443
											C168.17,195.383,162.868,192.343,160.593,195.512L160.593,195.512z"/>
									</g>
									<g>
										<path style="fill:#F99CA7;" d="M134.478,204.084c5.605,12.215,7.315,28.411-2.903,38.557
											c-11.099,11.018-32.272,10.257-46.133,5.789c-3.758-1.21-5.349,4.682-1.62,5.883c17.645,5.691,40.203,4.429,53.889-9.167
											c11.257-11.181,7.965-31.19,2.044-44.141C138.113,197.431,132.858,200.531,134.478,204.084L134.478,204.084z"/>
									</g>
									<g>
										<path style="fill:#F99CA7;" d="M110.676,263.258c-13.72,26.295,5.238,44.414,25.187,58.913
											c25.829,18.765,51.837,37.27,77.857,55.762c3.207,2.287,6.259-3.014,3.074-5.267
											c-16.273-11.561-32.503-23.161-48.728-34.786c-21.899-15.691-69.187-38.8-52.11-71.538
											C117.77,262.851,112.502,259.764,110.676,263.258L110.676,263.258z"/>
									</g>
									<g>
										<path style="fill:#F99CA7;" d="M161.393,248.426c-37.565,8.743-22.318,53.936,11.125,55.432
											c-0.872-1.531-1.749-3.061-2.629-4.592c-4.19,6.854-5.498,17.624,0.321,24.088c16.696,18.564,45.355,10.244,58.494,33.311
											c1.941,3.42,7.217,0.346,5.263-3.083c-5.952-10.454-12.959-16.11-24.439-19.633c-12.951-3.981-48.288-8.838-34.371-31.605
											c1.257-2.057-0.389-4.489-2.638-4.592c-26.021-1.159-39.715-36.41-9.505-43.444
											C166.853,253.419,165.224,247.536,161.393,248.426L161.393,248.426z"/>
									</g>
									<g>
										<path style="fill:#F99CA7;" d="M254.92,292.258c-22.972-0.556-42.999,13.639-42.713,37.843
											c0.038,3.934,6.148,3.934,6.105,0c-0.244-20.937,17.038-32.208,36.611-31.737
											C258.854,298.458,258.845,292.357,254.92,292.258L254.92,292.258z"/>
									</g>
									<g>
										<path style="fill:#F99CA7;" d="M76.96,300.579c15.559-2.42,23.404,10.676,25.486,24.229
											c0.137,0.924,1.201,2.001,2.129,2.129c17.846,2.561,29.245,15.302,28.274,33.678c-0.128,2.437,2.647,3.634,4.588,2.638
											c15.537-7.982,30.343-2.835,37.325,13.583c1.539,3.609,6.79,0.496,5.272-3.083c-8.32-19.548-26.829-25.452-45.68-15.772
											c1.531,0.881,3.066,1.757,4.588,2.634c1.124-21.001-11.822-36-32.447-39.519c3.955,0.676-4.053-15.443-4.34-15.892
											c-2.531-4.083-6.764-6.734-11.001-8.696c-4.78-2.21-10.659-2.617-15.819-1.813
											C71.457,295.303,73.107,301.181,76.96,300.579L76.96,300.579z"/>
									</g>
									<g>
										<path style="fill:#F99CA7;" d="M229.455,100.424c-18.154-7.7-35.97-3.762-51.422,8.466
											c-11.621,9.192-26.906,5.614-36.992,20.283c-9.381,13.648-7.867,20.514-18.663,28.236
											c-15.584,11.146-23.738,26.94-21.155,45.945c0.526,3.891,6.405,2.223,5.887-1.62
											c-4.199-30.951,23.456-31.288,30.553-52.927c2.364-7.213,6.212-13.579,11.061-19.385
											c8.371-10.052,16.935-4.408,25.952-9.693c17.782-10.415,27.381-24.358,51.704-14.037
											C229.955,107.213,233.068,101.959,229.455,100.424L229.455,100.424z"/>
									</g>
								</g>
							</g>
						</g>
					</g>
				</g>
				<g>
					<path style="fill:#F9BDB3;" d="M262.937,102.271c0,0,15.862-28.073,43.944-14.648c28.073,13.425,32.956,11.771,54.928,17.872
						c21.976,6.105,24.413,26.243,40.284,48.219c15.867,21.972,32.118,40.323,34.551,70.837
						c2.446,30.519,17.324,31.087,4.511,75.031c-14.952,51.255-19.868,45.573-39.061,70.803
						c-21.365,28.073-59.208,3.053-86.669,7.324c-22.237,3.459-32.956-32.524-52.486-30.083V102.271H262.937z"/>
					<g>
						<g>
							<g>
								<g>
									<g>
										<path style="fill:#F99CA7;" d="M263.741,120.258c14.917,3.963,31.002,2.818,44.038-5.798
											c1.112-0.731,2.805-0.479,3.698,0.475c10.535,11.232,25.375,16.982,40.558,17.419c3.938,0.111,3.946,6.217,0,6.101
											c-16.893-0.483-32.639-6.828-44.619-18.924c3.912,3.946-21.467,8.731-24.05,8.91c-6.926,0.483-14.528-0.517-21.254-2.305
											C258.323,125.132,259.935,119.245,263.741,120.258L263.741,120.258z"/>
									</g>
									<g>
										<path style="fill:#F99CA7;" d="M362.92,146.8c4.181,16.033,15.888,29.061,32.045,33.268
											c1.501,0.389,2.724,2.215,2.134,3.754c-7.448,19.407,5.114,35.564,22.4,43.546c3.57,1.65,0.466,6.914-3.083,5.272
											c-19.86-9.18-32.062-26.829-25.722-48.929c0.945-3.296,0.038,1.561-1.437,1.176c-2.668-0.693-5.498-2.236-7.953-3.459
											c-5.456-2.732-9.958-7.495-13.75-12.13c-4.831-5.9-8.598-13.472-10.526-20.882
											C356.037,144.611,361.928,142.995,362.92,146.8L362.92,146.8z"/>
									</g>
									<g>
										<path style="fill:#F99CA7;" d="M262.116,144.671c23.336-9.53,46.12,3.822,57.16,24.597
											c1.847,3.472-3.42,6.559-5.272,3.083c-9.889-18.616-29.48-30.284-50.263-21.792
											C260.106,152.047,258.529,146.138,262.116,144.671L262.116,144.671z"/>
									</g>
									<g>
										<path style="fill:#F99CA7;" d="M321.841,139.485c15.114,6.956,31.699,24.969,29.561,42.533
											c-2.082,17.085-26.038,21.399-39.232,17.324c0.988-1.702,1.98-3.399,2.967-5.101c10.154,12.899,11.728,35.632-3.976,45.59
											s-40.01,3.668-50.866-11.33c-2.309-3.194,2.993-6.238,5.272-3.083c6.05,8.367,18.445,12.425,28.197,13.447
											c22.237,2.322,28.18-26.166,17.051-40.305c-1.727-2.202-0.235-6.088,2.971-5.096c7.666,2.364,14.746,1.629,22.083-1.569
											c13.6-5.922,9.616-18.958,3.694-28.873c-4.596-7.692-12.647-14.507-20.809-18.261
											C315.197,143.111,318.292,137.852,321.841,139.485L321.841,139.485z"/>
									</g>
									<g>
										<path style="fill:#F99CA7;" d="M262.937,176.297c19.791,2.215,30.968,19.411,29.903,38.45
											c-0.218,3.912-6.323,3.933-6.105,0c0.607-10.856-2.129-21.113-11.446-27.5c-3.348-2.292-10.112-4.596-12.356-4.848
											C259.063,181.971,259.025,175.857,262.937,176.297L262.937,176.297z"/>
									</g>
									<g>
										<path style="fill:#F99CA7;" d="M315.423,251.371c0.038,6.204-2.638,12.553-7.243,16.692
											c-12.767,11.488-34.256,1.334-46.783-4.904c-3.527-1.753-0.44-7.016,3.078-5.267c12.023,5.977,45.03,18.419,44.842-6.52
											C309.296,247.434,315.389,247.434,315.423,251.371L315.423,251.371z"/>
									</g>
									<g>
										<path style="fill:#F99CA7;" d="M357.246,195.512c5.349,7.448,9.286,16.572,9.333,25.828
											c0.09,17.996-22.075,20.24-35.286,20.266c0.718-1.736,1.437-3.472,2.155-5.212c13.002,10.779,26.607,31.494,12.775,46.762
											c-10.518,11.617-35.414,5.592-48.095,1.672c-3.741-1.159-2.146-7.046,1.625-5.883c9.821,3.031,20.104,4.6,30.373,4.066
											c28.15-1.467,11.185-32.203-0.992-42.298c-2.129-1.766-0.321-5.208,2.163-5.212c14.614-0.021,32.738-2.899,28.253-21.467
											c-1.325-5.481-4.293-10.873-7.572-15.443C349.675,195.383,354.972,192.343,357.246,195.512L357.246,195.512z"/>
									</g>
									<g>
										<path style="fill:#F99CA7;" d="M383.366,204.084c-5.601,12.215-7.315,28.411,2.912,38.557
											c11.091,11.018,32.263,10.257,46.133,5.789c3.758-1.21,5.349,4.682,1.62,5.883c-17.645,5.691-40.203,4.429-53.897-9.167
											c-11.258-11.181-7.965-31.19-2.039-44.141C379.736,197.431,384.995,200.531,383.366,204.084L383.366,204.084z"/>
									</g>
									<g>
										<path style="fill:#F99CA7;" d="M407.163,263.258c13.72,26.295-5.233,44.414-25.187,58.913
											c-25.824,18.765-51.828,37.27-77.849,55.762c-3.207,2.287-6.259-3.014-3.083-5.267
											c16.273-11.561,32.511-23.161,48.737-34.786c21.899-15.691,69.187-38.8,52.11-71.538
											C400.075,262.851,405.346,259.764,407.163,263.258L407.163,263.258z"/>
									</g>
									<g>
										<path style="fill:#F99CA7;" d="M356.451,248.426c37.569,8.743,22.318,53.936-11.125,55.432
											c0.881-1.531,1.757-3.061,2.638-4.592c4.186,6.854,5.49,17.624-0.321,24.088c-16.704,18.564-45.351,10.244-58.494,33.311
											c-1.95,3.42-7.221,0.346-5.272-3.083c5.964-10.454,12.959-16.11,24.439-19.633c12.959-3.981,48.288-8.838,34.375-31.605
											c-1.253-2.057,0.393-4.489,2.634-4.592c26.029-1.159,39.715-36.41,9.505-43.444
											C350.996,253.419,352.625,247.536,356.451,248.426L356.451,248.426z"/>
									</g>
									<g>
										<path style="fill:#F99CA7;" d="M262.937,292.258c22.968-0.556,42.986,13.639,42.704,37.843
											c-0.043,3.934-6.148,3.934-6.101,0c0.244-20.937-17.038-32.208-36.607-31.737
											C258.999,298.458,259.008,292.357,262.937,292.258L262.937,292.258z"/>
									</g>
									<g>
										<path style="fill:#F99CA7;" d="M440.884,300.579c-15.55-2.42-23.396,10.676-25.478,24.229
											c-0.137,0.924-1.201,2.001-2.129,2.129c-17.855,2.561-29.253,15.302-28.274,33.678c0.128,2.437-2.655,3.634-4.588,2.638
											c-15.542-7.982-30.343-2.835-37.325,13.583c-1.539,3.609-6.798,0.496-5.272-3.083
											c8.312-19.548,26.833-25.452,45.676-15.772c-1.522,0.881-3.057,1.757-4.588,2.634c-1.116-21.001,11.822-36,32.456-39.519
											c-3.955,0.676,4.053-15.443,4.331-15.892c2.54-4.083,6.777-6.734,11.001-8.696c4.789-2.21,10.667-2.617,15.824-1.813
											C446.396,295.303,444.732,301.181,440.884,300.579L440.884,300.579z"/>
									</g>
									<g>
										<path style="fill:#F99CA7;" d="M288.389,100.424c18.162-7.7,35.97-3.762,51.43,8.466
											c11.617,9.192,26.906,5.614,36.983,20.283c9.381,13.648,7.867,20.514,18.663,28.236
											c15.589,11.146,23.738,26.94,21.155,45.945c-0.526,3.891-6.405,2.223-5.879-1.62c4.19-30.951-23.451-31.288-30.557-52.927
											c-2.364-7.213-6.204-13.579-11.052-19.385c-8.38-10.052-16.944-4.408-25.961-9.693
											c-17.782-10.415-27.368-24.358-51.704-14.037C287.889,107.213,284.772,101.959,288.389,100.424L288.389,100.424z"/>
									</g>
								</g>
							</g>
						</g>
					</g>
				</g>
			</g>
		</g>
		<path style="opacity:0.2;fill:#FFFFFF;enable-background:new    ;" d="M0,258.922c0,143,115.931,258.918,258.931,258.918V0
			C115.931,0,0,115.927,0,258.922z"/>
	</g>
</g>
<g>
</g>
<g>
</g>
<g>
</g>
<g>
</g>
<g>
</g>
<g>
</g>
<g>
</g>
<g>
</g>
<g>
</g>
<g>
</g>
<g>
</g>
<g>
</g>
<g>
</g>
<g>
</g>
<g>
</g>
</svg>
