<svg width="196" height="185" xmlns="http://www.w3.org/2000/svg">
 <!-- Created with Method Draw - http://github.com/duopixel/Method-Draw/ -->

 <g>
  <title>background</title>
  <rect fill="#ffffff" id="canvas_background" height="187" width="198" y="-1" x="-1"/>
  <g display="none" overflow="visible" y="0" x="0" height="100%" width="100%" id="canvasGrid">
   <rect fill="url(#gridpattern)" stroke-width="0" y="0" x="0" height="100%" width="100%"/>
  </g>
 </g>
 <g>
  <title>Layer 1</title>
  <g id="svg_44">
   <path fill="#ffff00" id="svg_28" d="m194.499527,71.646057c-0.4048,-1.241898 -1.478622,-2.147598 -2.772003,-2.336304l-62.061569,-9.019341l-27.754417,-56.236222c-0.576408,-1.173297 -1.770294,-1.914332 -3.073921,-1.914332s-2.501022,0.741035 -3.073914,1.914332l-27.757927,56.239659l-62.061485,9.019337c-1.293382,0.188683 -2.363865,1.090973 -2.772103,2.336311c-0.401407,1.238487 -0.068577,2.603905 0.867978,3.513062l44.911461,43.775848l-10.604294,61.814598c-0.219578,1.286499 0.308739,2.586716 1.361961,3.355225c1.060047,0.77533 2.463268,0.874817 3.612572,0.260712l55.515751,-29.181625l55.508926,29.181625c0.500809,0.264175 1.053223,0.394531 1.598709,0.394531c0.710144,0 1.416885,-0.219559 2.017181,-0.655243c1.056732,-0.768509 1.585052,-2.068726 1.362061,-3.355225l-10.600876,-61.811165l44.911362,-43.779282c0.933228,-0.916 1.269379,-2.278008 0.864548,-3.516502z"/>
   <g transform="matrix(6.99116, 0, 0, 6.99234, -32.0039, -397.714)" id="svg_29"/>
   <g transform="matrix(6.99116, 0, 0, 6.99234, -32.0039, -397.714)" id="svg_30"/>
   <g transform="matrix(6.99116, 0, 0, 6.99234, -32.0039, -397.714)" id="svg_31"/>
   <g transform="matrix(6.99116, 0, 0, 6.99234, -32.0039, -397.714)" id="svg_32"/>
   <g transform="matrix(6.99116, 0, 0, 6.99234, -32.0039, -397.714)" id="svg_33"/>
   <g transform="matrix(6.99116, 0, 0, 6.99234, -32.0039, -397.714)" id="svg_34"/>
   <g transform="matrix(6.99116, 0, 0, 6.99234, -32.0039, -397.714)" id="svg_35"/>
   <g transform="matrix(6.99116, 0, 0, 6.99234, -32.0039, -397.714)" id="svg_36"/>
   <g transform="matrix(6.99116, 0, 0, 6.99234, -32.0039, -397.714)" id="svg_37"/>
   <g transform="matrix(6.99116, 0, 0, 6.99234, -32.0039, -397.714)" id="svg_38"/>
   <g transform="matrix(6.99116, 0, 0, 6.99234, -32.0039, -397.714)" id="svg_39"/>
   <g transform="matrix(6.99116, 0, 0, 6.99234, -32.0039, -397.714)" id="svg_40"/>
   <g transform="matrix(6.99116, 0, 0, 6.99234, -32.0039, -397.714)" id="svg_41"/>
   <g transform="matrix(6.99116, 0, 0, 6.99234, -32.0039, -397.714)" id="svg_42"/>
   <g transform="matrix(6.99116, 0, 0, 6.99234, -32.0039, -397.714)" id="svg_43"/>
  </g>
 </g>
</svg>